<svg width="200" height="200" viewBox="0 0 200 200" fill="none" xmlns="http://www.w3.org/2000/svg">
<rect width="200" height="200" fill="#363B47"/>
<path d="M87.1667 116.437C85.9861 116.437 84.9965 116.038 84.1979 115.24C83.3993 114.441 83 113.451 83 112.271V102.167C83 101.056 83.2083 99.9965 83.625 98.9896C84.0417 97.9826 84.6319 97.0972 85.3958 96.3333L121.229 60.5C122.063 59.6667 123 59.0417 124.042 58.625C125.083 58.2083 126.125 58 127.167 58C128.278 58 129.337 58.2083 130.344 58.625C131.351 59.0417 132.271 59.6667 133.104 60.5L138.938 66.4375C139.701 67.2708 140.292 68.191 140.708 69.1979C141.125 70.2049 141.333 71.2292 141.333 72.2708C141.333 73.3125 141.142 74.3368 140.76 75.3437C140.378 76.3507 139.771 77.2708 138.938 78.1042L103.104 113.937C102.34 114.701 101.455 115.309 100.448 115.76C99.441 116.212 98.3819 116.437 97.2708 116.437H87.1667ZM127.167 78.1042L133.104 72.2708L127.271 66.4375L121.333 72.2708L127.167 78.1042ZM66.3333 141.437C64.0417 141.437 62.0799 140.622 60.4479 138.99C58.816 137.358 58 135.396 58 133.104V74.7708C58 72.4792 58.816 70.5174 60.4479 68.8854C62.0799 67.2535 64.0417 66.4375 66.3333 66.4375H93.4167C94.3889 66.4375 95.1875 66.6806 95.8125 67.1667C96.4375 67.6528 96.9236 68.2778 97.2708 69.0417C97.6181 69.8056 97.7396 70.5694 97.6354 71.3333C97.5313 72.0972 97.1319 72.8264 96.4375 73.5208L77.0625 92.8958C76.2986 93.6597 75.7083 94.5451 75.2917 95.5521C74.875 96.559 74.6667 97.6181 74.6667 98.7292V116.437C74.6667 118.729 75.4826 120.691 77.1146 122.323C78.7465 123.955 80.7083 124.771 83 124.771H100.604C101.715 124.771 102.774 124.562 103.781 124.146C104.788 123.729 105.674 123.139 106.438 122.375L125.917 102.896C126.611 102.201 127.34 101.802 128.104 101.698C128.868 101.594 129.632 101.715 130.396 102.062C131.16 102.41 131.785 102.896 132.271 103.521C132.757 104.146 133 104.944 133 105.917V133.104C133 135.396 132.184 137.358 130.552 138.99C128.92 140.622 126.958 141.437 124.667 141.437H66.3333Z" fill="url(#paint0_linear_560_49)"/>
<defs>
<linearGradient id="paint0_linear_560_49" x1="58" y1="99.7188" x2="141.333" y2="99.7188" gradientUnits="userSpaceOnUse">
<stop stop-color="#01D122"/>
<stop offset="1" stop-color="#00FF28"/>
</linearGradient>
</defs>
</svg>
