<svg width="200" height="200" viewBox="0 0 200 200" fill="none" xmlns="http://www.w3.org/2000/svg">
<rect width="200" height="200" fill="#363B47"/>
<path d="M100 141.667C94.3056 141.667 88.9236 140.573 83.8542 138.385C78.7847 136.198 74.3576 133.212 70.5729 129.427C66.7882 125.642 63.8021 121.215 61.6146 116.146C59.4271 111.076 58.3333 105.694 58.3333 100C58.3333 94.2361 59.4271 88.8368 61.6146 83.8021C63.8021 78.7674 66.7882 74.3576 70.5729 70.5729C74.3576 66.7882 78.7847 63.8021 83.8542 61.6146C88.9236 59.4271 94.3056 58.3333 100 58.3333C105.764 58.3333 111.163 59.4271 116.198 61.6146C121.233 63.8021 125.642 66.7882 129.427 70.5729C133.212 74.3576 136.198 78.7674 138.385 83.8021C140.573 88.8368 141.667 94.2361 141.667 100C141.667 105.694 140.573 111.076 138.385 116.146C136.198 121.215 133.212 125.642 129.427 129.427C125.642 133.212 121.233 136.198 116.198 138.385C111.163 140.573 105.764 141.667 100 141.667ZM100 133.125C101.806 130.625 103.368 128.021 104.688 125.313C106.007 122.604 107.083 119.722 107.917 116.667H92.0833C92.9167 119.722 93.9931 122.604 95.3125 125.313C96.632 128.021 98.1945 130.625 100 133.125ZM89.1667 131.458C87.9167 129.167 86.8229 126.788 85.8854 124.323C84.9479 121.858 84.1667 119.306 83.5417 116.667H71.25C73.2639 120.139 75.7813 123.16 78.8021 125.729C81.8229 128.299 85.2778 130.208 89.1667 131.458ZM110.833 131.458C114.722 130.208 118.177 128.299 121.198 125.729C124.219 123.16 126.736 120.139 128.75 116.667H116.458C115.833 119.306 115.052 121.858 114.115 124.323C113.177 126.788 112.083 129.167 110.833 131.458ZM67.7083 108.333H81.875C81.6667 106.944 81.5104 105.573 81.4063 104.219C81.3021 102.865 81.25 101.458 81.25 100C81.25 98.5417 81.3021 97.1354 81.4063 95.7813C81.5104 94.4271 81.6667 93.0556 81.875 91.6667H67.7083C67.3611 93.0556 67.1007 94.4271 66.9271 95.7813C66.7535 97.1354 66.6667 98.5417 66.6667 100C66.6667 101.458 66.7535 102.865 66.9271 104.219C67.1007 105.573 67.3611 106.944 67.7083 108.333ZM90.2083 108.333H109.792C110 106.944 110.156 105.573 110.26 104.219C110.365 102.865 110.417 101.458 110.417 100C110.417 98.5417 110.365 97.1354 110.26 95.7813C110.156 94.4271 110 93.0556 109.792 91.6667H90.2083C90 93.0556 89.8438 94.4271 89.7396 95.7813C89.6354 97.1354 89.5833 98.5417 89.5833 100C89.5833 101.458 89.6354 102.865 89.7396 104.219C89.8438 105.573 90 106.944 90.2083 108.333ZM118.125 108.333H132.292C132.639 106.944 132.899 105.573 133.073 104.219C133.247 102.865 133.333 101.458 133.333 100C133.333 98.5417 133.247 97.1354 133.073 95.7813C132.899 94.4271 132.639 93.0556 132.292 91.6667H118.125C118.333 93.0556 118.49 94.4271 118.594 95.7813C118.698 97.1354 118.75 98.5417 118.75 100C118.75 101.458 118.698 102.865 118.594 104.219C118.49 105.573 118.333 106.944 118.125 108.333ZM116.458 83.3333H128.75C126.736 79.8611 124.219 76.8403 121.198 74.2708C118.177 71.7014 114.722 69.7917 110.833 68.5417C112.083 70.8333 113.177 73.2118 114.115 75.6771C115.052 78.1424 115.833 80.6945 116.458 83.3333ZM92.0833 83.3333H107.917C107.083 80.2778 106.007 77.3958 104.688 74.6875C103.368 71.9792 101.806 69.375 100 66.875C98.1945 69.375 96.632 71.9792 95.3125 74.6875C93.9931 77.3958 92.9167 80.2778 92.0833 83.3333ZM71.25 83.3333H83.5417C84.1667 80.6945 84.9479 78.1424 85.8854 75.6771C86.8229 73.2118 87.9167 70.8333 89.1667 68.5417C85.2778 69.7917 81.8229 71.7014 78.8021 74.2708C75.7813 76.8403 73.2639 79.8611 71.25 83.3333Z" fill="url(#paint0_linear_560_17)"/>
<defs>
<linearGradient id="paint0_linear_560_17" x1="58.3333" y1="100" x2="141.667" y2="100" gradientUnits="userSpaceOnUse">
<stop stop-color="#01D122"/>
<stop offset="1" stop-color="#00FF28"/>
</linearGradient>
</defs>
</svg>
