<svg width="200" height="200" viewBox="0 0 200 200" fill="none" xmlns="http://www.w3.org/2000/svg">
<rect width="200" height="200" fill="url(#paint0_linear_560_22)"/>
<path d="M86.7292 95.6369L95.6875 86.5744L89.8542 80.6369L88.1875 82.3036C87.4236 83.0675 86.4687 83.4668 85.3229 83.5015C84.1771 83.5362 83.1875 83.1369 82.3542 82.3036C81.5208 81.4702 81.1042 80.4807 81.1042 79.3348C81.1042 78.189 81.5208 77.1994 82.3542 76.3661L83.9167 74.8036L79.2292 70.1161L70.1667 79.1786L86.7292 95.6369ZM120.896 129.908L129.958 120.845L125.271 116.158L123.604 117.72C122.771 118.554 121.799 118.97 120.687 118.97C119.576 118.97 118.604 118.554 117.771 117.72C116.937 116.887 116.521 115.915 116.521 114.804C116.521 113.692 116.937 112.72 117.771 111.887L119.333 110.22L113.396 104.387L104.437 113.345L120.896 129.908ZM117.667 76.7827L123.5 82.6161L129.333 76.7827L123.396 70.8452L117.667 76.7827ZM66.7292 137.512C65.5486 137.512 64.559 137.113 63.7604 136.314C62.9618 135.515 62.5625 134.526 62.5625 133.345V121.574C62.5625 121.019 62.6667 120.481 62.875 119.96C63.0833 119.439 63.3958 118.97 63.8125 118.554L80.7917 101.574L62.7708 83.5536C61.5903 82.373 61 80.9147 61 79.1786C61 77.4425 61.5903 75.9841 62.7708 74.8036L74.8542 62.7202C76.0347 61.5397 77.4931 60.9668 79.2292 61.0015C80.9653 61.0362 82.4236 61.6438 83.6042 62.8244L101.729 80.8452L117.458 65.0119C118.292 64.1786 119.229 63.5536 120.271 63.1369C121.312 62.7202 122.389 62.5119 123.5 62.5119C124.611 62.5119 125.687 62.7202 126.729 63.1369C127.771 63.5536 128.708 64.1786 129.542 65.0119L135.062 70.6369C135.896 71.4702 136.521 72.4077 136.937 73.4494C137.354 74.4911 137.562 75.5675 137.562 76.6786C137.562 77.7897 137.354 78.8487 136.937 79.8557C136.521 80.8626 135.896 81.7827 135.062 82.6161L119.333 98.4494L137.354 116.47C138.535 117.651 139.125 119.109 139.125 120.845C139.125 122.581 138.535 124.04 137.354 125.22L125.271 137.304C124.09 138.484 122.632 139.074 120.896 139.074C119.16 139.074 117.701 138.484 116.521 137.304L98.5 119.283L81.5208 136.262C81.1042 136.679 80.6354 136.991 80.1146 137.199C79.5937 137.408 79.0556 137.512 78.5 137.512H66.7292Z" fill="white"/>
<defs>
<linearGradient id="paint0_linear_560_22" x1="0" y1="100" x2="200" y2="100" gradientUnits="userSpaceOnUse">
<stop stop-color="#01D122"/>
<stop offset="1" stop-color="#00FF28"/>
</linearGradient>
</defs>
</svg>
