<svg width="200" height="200" viewBox="0 0 200 200" fill="none" xmlns="http://www.w3.org/2000/svg">
<rect width="200" height="200" fill="#363B47"/>
<path d="M75 125H100V123.125C100 121.944 99.6702 120.851 99.0104 119.844C98.3507 118.837 97.4306 118.056 96.25 117.5C94.8611 116.875 93.4549 116.406 92.0313 116.094C90.6077 115.781 89.0972 115.625 87.5 115.625C85.9028 115.625 84.3924 115.781 82.9688 116.094C81.5452 116.406 80.1389 116.875 78.75 117.5C77.5695 118.056 76.6493 118.837 75.9896 119.844C75.3299 120.851 75 121.944 75 123.125V125ZM111.458 118.75H121.875C122.778 118.75 123.524 118.455 124.115 117.865C124.705 117.274 125 116.528 125 115.625C125 114.722 124.705 113.976 124.115 113.385C123.524 112.795 122.778 112.5 121.875 112.5H111.458C110.556 112.5 109.809 112.795 109.219 113.385C108.628 113.976 108.333 114.722 108.333 115.625C108.333 116.528 108.628 117.274 109.219 117.865C109.809 118.455 110.556 118.75 111.458 118.75ZM87.5 112.5C89.2361 112.5 90.7118 111.892 91.9271 110.677C93.1424 109.462 93.75 107.986 93.75 106.25C93.75 104.514 93.1424 103.038 91.9271 101.823C90.7118 100.608 89.2361 100 87.5 100C85.7639 100 84.2882 100.608 83.0729 101.823C81.8577 103.038 81.25 104.514 81.25 106.25C81.25 107.986 81.8577 109.462 83.0729 110.677C84.2882 111.892 85.7639 112.5 87.5 112.5ZM111.458 106.25H121.875C122.778 106.25 123.524 105.955 124.115 105.365C124.705 104.774 125 104.028 125 103.125C125 102.222 124.705 101.476 124.115 100.885C123.524 100.295 122.778 100 121.875 100H111.458C110.556 100 109.809 100.295 109.219 100.885C108.628 101.476 108.333 102.222 108.333 103.125C108.333 104.028 108.628 104.774 109.219 105.365C109.809 105.955 110.556 106.25 111.458 106.25ZM66.6667 141.667C64.375 141.667 62.4132 140.851 60.7813 139.219C59.1493 137.587 58.3333 135.625 58.3333 133.333V87.5C58.3333 85.2083 59.1493 83.2465 60.7813 81.6146C62.4132 79.9826 64.375 79.1666 66.6667 79.1666H87.5V66.6666C87.5 64.375 88.316 62.4132 89.9479 60.7812C91.5799 59.1493 93.5417 58.3333 95.8333 58.3333H104.167C106.458 58.3333 108.42 59.1493 110.052 60.7812C111.684 62.4132 112.5 64.375 112.5 66.6666V79.1666H133.333C135.625 79.1666 137.587 79.9826 139.219 81.6146C140.851 83.2465 141.667 85.2083 141.667 87.5V133.333C141.667 135.625 140.851 137.587 139.219 139.219C137.587 140.851 135.625 141.667 133.333 141.667H66.6667ZM95.8333 87.5H104.167V66.6666H95.8333V87.5Z" fill="url(#paint0_linear_560_35)"/>
<defs>
<linearGradient id="paint0_linear_560_35" x1="58.3333" y1="100" x2="141.667" y2="100" gradientUnits="userSpaceOnUse">
<stop stop-color="#01D122"/>
<stop offset="1" stop-color="#00FF28"/>
</linearGradient>
</defs>
</svg>
