<svg width="368" height="327" viewBox="0 0 368 327" fill="none" xmlns="http://www.w3.org/2000/svg">
<path d="M367.221 186.453C366.848 187.141 366.37 187.782 366.121 188.509C362.373 199.074 354.016 205.06 342.781 205.089C326.919 205.127 311.056 205.089 295.193 205.089C294.026 205.089 292.86 205.089 291.359 205.089V209.143C291.359 239.855 291.359 270.557 291.359 301.27C291.359 317.161 281.577 327 265.781 327C185.998 327 106.216 327 26.4235 327C10.5894 327 0.769531 317.18 0.769531 301.346C0.769531 250.086 0.769531 198.826 0.769531 147.556C0.769531 131.722 10.5798 121.902 26.4044 121.892C42.9748 121.892 59.5548 121.892 76.6319 121.892V118.077C76.6319 87.2504 76.6319 56.4235 76.6319 25.5871C76.6415 9.79116 86.4613 0 102.334 0C182.116 0 261.899 0 341.691 0C354.963 0 362.957 6.09079 366.695 18.9895C366.743 19.1521 367.049 19.2381 367.231 19.3624V186.453H367.221ZM146.069 137.688C106.464 137.688 66.8599 137.688 27.2554 137.688C19.0037 137.688 16.5176 140.136 16.5176 148.263C16.5176 199.055 16.5176 249.856 16.5176 300.648C16.5176 308.766 19.0132 311.233 27.2554 311.233C106.464 311.233 185.664 311.233 264.873 311.233C273.096 311.233 275.611 308.756 275.611 300.658C275.611 249.866 275.611 199.065 275.611 148.273C275.611 140.155 273.105 137.698 264.873 137.698C225.268 137.698 185.664 137.698 146.059 137.698L146.069 137.688ZM92.3896 121.682C93.0302 121.806 93.2501 121.892 93.4796 121.892C138.2 121.892 182.929 121.921 227.649 121.806C228.892 121.806 230.623 120.554 231.302 119.397C238.683 106.881 245.835 94.2208 253.179 81.6759C275.505 43.5057 326.947 43.5535 349.188 81.7333C349.781 82.7564 350.383 83.7795 351.492 85.6727C351.492 64.9143 351.492 45.3224 351.492 25.7209C351.492 18.5305 348.738 15.7768 341.567 15.7768C261.899 15.7768 182.231 15.7768 102.573 15.7768C95.1051 15.7768 92.4087 18.4445 92.4087 25.8452C92.4087 56.194 92.4087 86.5524 92.4087 116.901C92.4087 118.441 92.4087 119.97 92.4087 121.692L92.3896 121.682ZM291.359 189.312C309.048 189.312 326.316 189.379 343.575 189.274C348.604 189.245 351.463 185.793 351.473 180.219C351.492 160.034 351.502 139.859 351.435 119.674C351.435 118.221 350.985 116.605 350.268 115.343C345.363 106.632 340.391 97.9499 335.323 89.3252C319.317 62.0553 282.858 62.0649 266.938 89.3348C261.115 99.3076 255.397 109.338 249.641 119.358C249.211 120.114 248.876 120.927 248.398 121.921C254.508 121.921 260.226 121.921 265.944 121.921C281.501 121.94 291.34 131.808 291.349 147.422C291.359 161.258 291.349 175.094 291.349 189.321L291.359 189.312Z" fill="url(#paint0_linear_764_96)"/>
<path d="M202.731 169.462C216.567 169.462 230.403 169.615 244.239 169.415C257.472 169.223 260.532 170.027 259.92 185.277C259.623 192.678 259.881 200.098 259.862 207.499C259.843 213.628 257.195 216.477 251.133 216.974C250.425 217.032 249.698 217.013 248.991 217.013C218.097 217.013 187.213 217.013 156.319 217.013C155.133 217.013 153.938 216.936 152.762 216.774C148.067 216.133 145.419 213.341 145.38 208.684C145.304 198.406 145.294 188.127 145.38 177.858C145.419 172.57 148.67 169.596 154.435 169.501C160.392 169.395 166.359 169.472 172.325 169.472C182.461 169.472 192.596 169.472 202.741 169.472L202.731 169.462ZM243.99 185.516H161.31V200.729H243.99V185.516Z" fill="#A3FF2B"/>
<path d="M73.0268 263.3C66.9552 263.3 60.8452 263.711 54.8214 263.223C37.553 261.817 26.93 242.914 34.8853 227.395C40.1538 217.117 45.9481 207.048 52.1824 197.333C62.1456 181.805 84.6921 182.216 94.3972 197.955C100.096 207.182 105.489 216.619 110.652 226.152C120.089 243.574 108.118 262.984 87.6849 263.605C82.7989 263.749 77.9129 263.625 73.0268 263.625C73.0268 263.519 73.0268 263.405 73.0268 263.3ZM73.132 247.628C78.018 247.628 82.9136 247.676 87.7996 247.618C96.5008 247.504 100.622 240.39 96.3382 232.826C91.5191 224.317 86.6331 215.835 81.6897 207.392C77.3105 199.906 68.8962 199.81 64.5169 207.22C59.4301 215.854 54.4198 224.536 49.5146 233.276C45.6039 240.256 49.7537 247.427 57.7377 247.609C62.8628 247.724 67.9878 247.628 73.1224 247.637L73.132 247.628Z" fill="#A3FF2B"/>
<path d="M202.76 232.569C216.242 232.569 229.714 232.588 243.196 232.559C246.763 232.559 249.832 233.448 251.697 236.757C254.297 241.385 251.649 247.169 246.438 248.154C244.697 248.479 242.881 248.556 241.102 248.556C215.458 248.585 189.813 248.575 164.169 248.556C162.505 248.556 160.822 248.47 159.187 248.212C155.391 247.619 152.704 244.597 152.532 240.916C152.36 237.168 154.703 233.926 158.441 232.989C159.809 232.645 161.272 232.578 162.687 232.578C176.044 232.55 189.402 232.559 202.769 232.559L202.76 232.569Z" fill="#A3FF2B"/>
<path d="M181.504 280.129C175.538 280.129 169.581 280.157 163.614 280.11C162.075 280.1 160.507 280.004 158.986 279.746C155.401 279.144 152.771 276.18 152.532 272.642C152.274 268.913 154.588 265.585 158.279 264.581C159.522 264.247 160.861 264.142 162.161 264.132C175.04 264.103 187.93 264.065 200.809 264.161C202.655 264.17 204.682 264.476 206.317 265.279C209.539 266.857 210.954 269.802 210.352 273.321C209.749 276.773 207.665 279.526 204.032 279.67C196.535 279.966 189.02 279.756 181.514 279.756C181.514 279.88 181.514 279.995 181.514 280.119L181.504 280.129Z" fill="#A3FF2B"/>
<path d="M161.654 54.5497C149.377 54.5497 137.11 54.5689 124.832 54.5497C118.981 54.5402 115.357 51.49 115.347 46.6709C115.347 41.8709 119.028 38.7825 124.851 38.7825C149.635 38.773 174.419 38.7634 199.203 38.7825C205.973 38.7825 210.094 44.2231 207.608 49.8071C206.068 53.2685 203.209 54.5689 199.538 54.5593C186.907 54.5211 174.276 54.5402 161.645 54.5497H161.654Z" fill="#A3FF2B"/>
<path d="M140.781 86.1034C135.187 86.1034 129.584 86.1512 123.991 86.0843C118.808 86.0269 115.27 82.6899 115.347 78.1003C115.423 73.635 118.913 70.3649 123.885 70.3458C135.082 70.2884 146.269 70.2884 157.466 70.3458C162.639 70.3744 166.167 73.7593 166.081 78.368C165.995 82.8524 162.553 86.0365 157.571 86.0843C151.978 86.1417 146.375 86.0939 140.781 86.0939V86.1034Z" fill="#A3FF2B"/>
<defs>
<linearGradient id="paint0_linear_764_96" x1="1.69766" y1="327" x2="386.817" y2="26.2736" gradientUnits="userSpaceOnUse">
<stop stop-color="#CCFF33"/>
<stop offset="0.49" stop-color="#9AFF29"/>
<stop offset="1" stop-color="#68FF20"/>
</linearGradient>
</defs>
</svg>
