<svg width="342" height="327" viewBox="0 0 342 327" fill="none" xmlns="http://www.w3.org/2000/svg">
<path d="M0.148438 202.859C1.66857 194.713 6.10155 187.867 10.0339 180.804C20.0286 162.844 30.096 144.93 39.9906 126.916C46.2532 115.511 54.5821 106.008 65.041 98.2885C73.9889 91.6891 82.7911 84.8986 91.7481 78.3083C101.36 71.2264 112.047 68.9963 123.607 72.164C126.047 72.8376 127.084 72.337 128.268 70.2525C139.136 51.2553 150.096 32.3037 161.046 13.3611C168.838 -0.119861 181.946 -3.68809 195.418 3.97632C198.504 5.73312 201.598 7.48993 204.657 9.30135C217.082 16.6745 220.696 30.0735 213.532 42.5896C205.422 56.7624 197.202 70.8805 189.037 85.026C188.427 86.0819 187.835 87.1469 187.089 88.4759C188.873 89.4499 190.566 90.4239 192.296 91.325C216.536 103.932 240.776 116.53 265.044 129.092C266.182 129.683 267.529 130.084 268.803 130.129C272.553 130.266 276.313 130.175 280.454 130.175C280.454 127.827 280.409 125.751 280.454 123.676C280.591 117.786 284.696 113.508 290.549 113.472C304.23 113.39 317.912 113.39 331.593 113.472C337.628 113.508 341.824 117.759 341.824 123.867C341.861 176.917 341.861 229.967 341.824 283.026C341.824 289.471 337.61 293.603 331.101 293.631C318.649 293.676 306.188 293.649 293.735 293.649C284.177 293.649 281.101 290.9 280.209 281.233C243.844 293.913 207.697 293.576 171.578 279.094C169.785 293.021 162.967 303.179 149.968 308.14C137.061 313.065 125.3 310.161 114.759 300.995C106.667 308.286 97.2005 311.654 86.332 309.997C75.5454 308.359 67.6079 302.333 61.9461 292.957C50.231 303.352 38.6707 313.611 27.1195 323.879C24.1884 326.491 20.9206 327.738 17.0065 326.546C11.4539 324.862 8.87785 320.001 10.2888 313.529C12.7465 302.242 15.3043 290.982 17.8166 279.713C19.4642 272.34 20.866 264.903 22.8504 257.63C24.3978 251.932 26.6826 246.443 28.7033 240.672C27.3471 240.317 25.299 239.934 23.351 239.252C11.3993 235.046 3.98974 226.708 0.940365 214.438C0.703697 213.473 0.430619 212.526 0.166643 211.571C0.166643 208.676 0.166643 205.79 0.166643 202.896L0.148438 202.859ZM120.567 203.578C131.663 203.578 142.004 203.624 152.335 203.515C153.418 203.506 154.629 202.805 155.557 202.122C162.712 196.833 169.676 191.272 177.003 186.256C179.279 184.7 182.565 183.78 185.305 183.944C189.51 184.199 192.314 187.112 193.324 191.317C194.335 195.532 192.924 199.064 189.556 201.64C181.7 207.656 173.653 213.428 165.88 219.544C162.184 222.448 158.352 223.704 153.628 223.677C126.711 223.522 99.7948 223.622 72.8783 223.577C68.1632 223.577 64.0488 224.815 61.0541 228.574C57.6406 232.871 57.0216 237.704 59.3701 242.656C61.7823 247.735 66.0059 250.284 71.6586 250.284C97.7922 250.293 123.935 250.402 150.069 250.202C155.712 250.157 160.737 251.331 165.652 254.007C191.158 267.879 218.293 273.132 247.13 268.917C258.608 267.242 269.695 264.165 280.209 259.532V150.183C275.202 150.183 270.432 150.355 265.672 150.11C263.423 149.991 261.002 149.491 259.009 148.471C239.939 138.677 220.951 128.737 201.935 118.851C193.688 114.564 185.432 110.295 176.976 105.917C158.188 138.449 139.546 170.727 120.576 203.578H120.567ZM116.161 90.9882C111.137 90.433 107.232 91.7164 103.727 94.338C94.1148 101.52 84.5115 108.702 74.9446 115.948C68.591 120.763 63.2478 126.57 59.3428 133.525C46.7902 155.881 34.3106 178.282 21.9128 200.72C18.1716 207.484 20.5929 215.512 27.1286 219.153C33.7462 222.84 41.4106 220.555 45.3611 213.719C67.1801 175.943 88.9991 138.167 110.809 100.391C112.52 97.4329 114.195 94.4563 116.161 90.9973V90.9882ZM157.687 59.2201C129.915 107.309 102.28 155.171 74.3257 203.588C81.3438 203.588 87.7429 203.469 94.1421 203.651C96.5543 203.715 97.865 202.987 99.0939 200.848C122.306 160.496 145.608 120.199 168.893 79.8921C170.886 76.4513 172.852 72.9923 174.992 69.2603C169.257 65.9287 163.713 62.7155 157.706 59.2201H157.687ZM321.68 133.707H300.726V273.414H321.68V133.707ZM167.7 41.8887C173.526 45.2476 179.224 48.5336 185.032 51.8834C188.955 45.1019 192.614 38.7574 196.292 32.4311C197.639 30.1008 197.357 28.1984 194.926 26.8057C191.367 24.7576 187.808 22.7095 184.24 20.6614C182.082 19.4235 180.362 20.0151 179.161 22.0632C175.356 28.5716 171.614 35.1164 167.7 41.8978V41.8887ZM125.036 270.437C124.317 277.874 124.49 284.665 131.772 288.752C136.415 291.355 142.277 290.763 146.464 287.404C150.97 283.791 152.854 276.627 150.897 270.437H125.036ZM104.974 270.319C98.1927 270.319 92.094 270.319 85.9952 270.319C81.189 270.319 77.2658 275.425 78.4127 280.186C79.8601 286.194 85.3489 290.408 91.6297 290.326C97.7467 290.254 103.126 286.048 104.282 280.022C104.856 277.028 104.747 273.896 104.983 270.319H104.974ZM58.7966 268.908C53.508 264.766 48.5197 260.861 43.4041 256.856C41.1557 267.015 38.8528 277.419 36.5498 287.814C36.7683 287.905 36.9958 287.996 37.2143 288.087C44.4964 281.615 51.7785 275.152 58.8057 268.908H58.7966Z" fill="url(#paint0_linear_756_3)"/>
<defs>
<linearGradient id="paint0_linear_756_3" x1="1.01386" y1="327" x2="378.797" y2="51.9322" gradientUnits="userSpaceOnUse">
<stop stop-color="#CCFF33"/>
<stop offset="0.49" stop-color="#9AFF29"/>
<stop offset="1" stop-color="#68FF20"/>
</linearGradient>
</defs>
</svg>
