<svg width="198" height="198" viewBox="0 0 198 198" fill="none" xmlns="http://www.w3.org/2000/svg">
<g clip-path="url(#clip0_715_743)">
<path d="M144.693 182.769C148.899 182.769 152.308 186.179 152.308 190.385C152.308 194.59 148.899 198 144.693 198C140.487 198 137.077 194.59 137.077 190.385C137.077 186.179 140.487 182.769 144.693 182.769Z" fill="#252734"/>
<path d="M190.384 182.769C194.59 182.769 198 186.179 198 190.385C198 194.59 194.59 198 190.384 198C186.178 198 182.769 194.59 182.769 190.385C182.769 186.179 186.178 182.769 190.384 182.769Z" fill="#252734"/>
<path d="M53.3078 137.077C57.5137 137.077 60.9232 140.486 60.9232 144.692C60.9232 148.898 57.5137 152.308 53.3078 152.308C49.1018 152.308 45.6924 148.898 45.6924 144.692C45.6924 140.486 49.1018 137.077 53.3078 137.077Z" fill="#252734"/>
<path d="M99.0002 137.077C103.206 137.077 106.616 140.486 106.616 144.692C106.616 148.898 103.206 152.308 99.0002 152.308C94.7942 152.308 91.3848 148.898 91.3848 144.692C91.3848 140.486 94.7942 137.077 99.0002 137.077Z" fill="#252734"/>
<path d="M144.693 137.077C148.899 137.077 152.308 140.486 152.308 144.692C152.308 148.898 148.899 152.308 144.693 152.308C140.487 152.308 137.077 148.898 137.077 144.692C137.077 140.486 140.487 137.077 144.693 137.077Z" fill="#252734"/>
<path d="M190.384 137.077C194.59 137.077 198 140.486 198 144.692C198 148.898 194.59 152.308 190.384 152.308C186.178 152.308 182.769 148.898 182.769 144.692C182.769 140.486 186.178 137.077 190.384 137.077Z" fill="#252734"/>
<path d="M53.3078 91.3846C57.5137 91.3846 60.9232 94.794 60.9232 99C60.9232 103.206 57.5137 106.615 53.3078 106.615C49.1018 106.615 45.6924 103.206 45.6924 99C45.6924 94.794 49.1018 91.3846 53.3078 91.3846Z" fill="#252734"/>
<path d="M99.0002 91.3846C103.206 91.3846 106.616 94.794 106.616 99C106.616 103.206 103.206 106.615 99.0002 106.615C94.7942 106.615 91.3848 103.206 91.3848 99C91.3848 94.794 94.7942 91.3846 99.0002 91.3846Z" fill="#252734"/>
<path d="M144.693 91.3846C148.899 91.3846 152.308 94.794 152.308 99C152.308 103.206 148.899 106.615 144.693 106.615C140.487 106.615 137.077 103.206 137.077 99C137.077 94.794 140.487 91.3846 144.693 91.3846Z" fill="#252734"/>
<path d="M190.384 91.3846C194.59 91.3846 198 94.794 198 99C198 103.206 194.59 106.615 190.384 106.615C186.178 106.615 182.769 103.206 182.769 99C182.769 94.794 186.178 91.3846 190.384 91.3846Z" fill="#252734"/>
<path d="M7.61538 45.6923C11.8212 45.6923 15.2308 49.1017 15.2308 53.3077C15.2308 57.5137 11.8212 60.9231 7.61538 60.9231C3.40952 60.9231 4.06568e-08 57.5137 9.08126e-08 53.3077C1.40968e-07 49.1017 3.40952 45.6923 7.61538 45.6923Z" fill="#252734"/>
<path d="M53.3078 45.6923C57.5137 45.6923 60.9232 49.1017 60.9232 53.3077C60.9232 57.5137 57.5137 60.9231 53.3078 60.9231C49.1018 60.9231 45.6924 57.5137 45.6924 53.3077C45.6924 49.1017 49.1018 45.6923 53.3078 45.6923Z" fill="#252734"/>
<path d="M99.0002 45.6923C103.206 45.6923 106.616 49.1017 106.616 53.3077C106.616 57.5137 103.206 60.9231 99.0002 60.9231C94.7942 60.9231 91.3848 57.5137 91.3848 53.3077C91.3848 49.1017 94.7942 45.6923 99.0002 45.6923Z" fill="#252734"/>
<path d="M144.693 45.6923C148.899 45.6923 152.308 49.1017 152.308 53.3077C152.308 57.5137 148.899 60.9231 144.693 60.9231C140.487 60.9231 137.077 57.5137 137.077 53.3077C137.077 49.1017 140.487 45.6923 144.693 45.6923Z" fill="#252734"/>
<path d="M190.384 45.6923C194.59 45.6923 198 49.1017 198 53.3077C198 57.5137 194.59 60.9231 190.384 60.9231C186.178 60.9231 182.769 57.5137 182.769 53.3077C182.769 49.1017 186.178 45.6923 190.384 45.6923Z" fill="#252734"/>
<path d="M7.61538 -5.6176e-05C11.8212 -5.61258e-05 15.2308 3.40935 15.2308 7.61533C15.2308 11.8213 11.8212 15.2307 7.61538 15.2307C3.40952 15.2307 4.06568e-08 11.8213 9.08126e-08 7.61533C1.40968e-07 3.40935 3.40952 -5.62261e-05 7.61538 -5.6176e-05Z" fill="#252734"/>
<path d="M53.3078 -5.6176e-05C57.5137 -5.61258e-05 60.9232 3.40935 60.9232 7.61533C60.9232 11.8213 57.5137 15.2307 53.3078 15.2307C49.1018 15.2307 45.6924 11.8213 45.6924 7.61533C45.6924 3.40935 49.1018 -5.62261e-05 53.3078 -5.6176e-05Z" fill="#252734"/>
<path d="M99.0002 -5.6176e-05C103.206 -5.61258e-05 106.616 3.40935 106.616 7.61533C106.616 11.8213 103.206 15.2307 99.0002 15.2307C94.7942 15.2307 91.3848 11.8213 91.3848 7.61533C91.3848 3.40935 94.7942 -5.62261e-05 99.0002 -5.6176e-05Z" fill="#252734"/>
<path d="M144.693 -5.6176e-05C148.899 -5.61258e-05 152.308 3.40935 152.308 7.61533C152.308 11.8213 148.899 15.2307 144.693 15.2307C140.487 15.2307 137.077 11.8213 137.077 7.61533C137.077 3.40935 140.487 -5.62261e-05 144.693 -5.6176e-05Z" fill="#252734"/>
<path d="M190.384 -5.6176e-05C194.59 -5.61258e-05 198 3.40935 198 7.61533C198 11.8213 194.59 15.2307 190.384 15.2307C186.178 15.2307 182.769 11.8213 182.769 7.61533C182.769 3.40935 186.178 -5.62261e-05 190.384 -5.6176e-05Z" fill="#252734"/>
</g>
<defs>
<clipPath id="clip0_715_743">
<rect width="198" height="198" fill="white" transform="translate(0 198) rotate(-90)"/>
</clipPath>
</defs>
</svg>
