<svg width="118" height="118" viewBox="0 0 118 118" fill="none" xmlns="http://www.w3.org/2000/svg">
<g clip-path="url(#clip0_715_765)">
<path d="M9.07692 86.2307C9.07692 88.7373 7.04499 90.7692 4.53846 90.7692C2.03194 90.7692 0 88.7373 0 86.2307C0 83.7241 2.03194 81.6923 4.53846 81.6923C7.04499 81.6923 9.07692 83.7241 9.07692 86.2307Z" fill="#8C8C8C"/>
<path d="M9.07692 113.462C9.07692 115.968 7.04499 118 4.53846 118C2.03194 118 0 115.968 0 113.462C0 110.955 2.03194 108.923 4.53846 108.923C7.04499 108.923 9.07692 110.955 9.07692 113.462Z" fill="#8C8C8C"/>
<path d="M36.3079 31.7692C36.3079 34.2758 34.276 36.3076 31.7694 36.3076C29.2628 36.3076 27.231 34.2758 27.231 31.7692C27.231 29.2626 29.2628 27.2307 31.7694 27.2307C34.276 27.2307 36.3079 29.2626 36.3079 31.7692Z" fill="#8C8C8C"/>
<path d="M36.3079 59C36.3079 61.5066 34.276 63.5385 31.7694 63.5385C29.2628 63.5385 27.231 61.5066 27.231 59C27.231 56.4934 29.2628 54.4615 31.7694 54.4615C34.276 54.4615 36.3079 56.4934 36.3079 59Z" fill="#8C8C8C"/>
<path d="M36.3079 86.2307C36.3079 88.7373 34.276 90.7692 31.7694 90.7692C29.2628 90.7692 27.231 88.7373 27.231 86.2307C27.231 83.7241 29.2628 81.6923 31.7694 81.6923C34.276 81.6923 36.3079 83.7241 36.3079 86.2307Z" fill="#8C8C8C"/>
<path d="M36.3079 113.462C36.3079 115.968 34.276 118 31.7694 118C29.2628 118 27.231 115.968 27.231 113.462C27.231 110.955 29.2628 108.923 31.7694 108.923C34.276 108.923 36.3079 110.955 36.3079 113.462Z" fill="#8C8C8C"/>
<path d="M63.5383 31.7692C63.5383 34.2758 61.5065 36.3076 58.9999 36.3076C56.4933 36.3076 54.4614 34.2758 54.4614 31.7692C54.4614 29.2626 56.4933 27.2307 58.9999 27.2307C61.5065 27.2307 63.5383 29.2626 63.5383 31.7692Z" fill="#8C8C8C"/>
<path d="M63.5383 59C63.5383 61.5066 61.5065 63.5385 58.9999 63.5385C56.4933 63.5385 54.4614 61.5066 54.4614 59C54.4614 56.4934 56.4933 54.4615 58.9999 54.4615C61.5065 54.4615 63.5383 56.4934 63.5383 59Z" fill="#8C8C8C"/>
<path d="M63.5383 86.2307C63.5383 88.7373 61.5065 90.7692 58.9999 90.7692C56.4933 90.7692 54.4614 88.7373 54.4614 86.2307C54.4614 83.7241 56.4933 81.6923 58.9999 81.6923C61.5065 81.6923 63.5383 83.7241 63.5383 86.2307Z" fill="#8C8C8C"/>
<path d="M63.5383 113.462C63.5383 115.968 61.5065 118 58.9999 118C56.4933 118 54.4614 115.968 54.4614 113.462C54.4614 110.955 56.4933 108.923 58.9999 108.923C61.5065 108.923 63.5383 110.955 63.5383 113.462Z" fill="#8C8C8C"/>
<path d="M90.7693 4.53846C90.7693 7.04499 88.7374 9.07692 86.2308 9.07692C83.7243 9.07692 81.6924 7.04499 81.6924 4.53846C81.6924 2.03194 83.7243 0 86.2308 0C88.7374 0 90.7693 2.03194 90.7693 4.53846Z" fill="#8C8C8C"/>
<path d="M90.7693 31.7692C90.7693 34.2758 88.7374 36.3076 86.2308 36.3076C83.7243 36.3076 81.6924 34.2758 81.6924 31.7692C81.6924 29.2626 83.7243 27.2307 86.2308 27.2307C88.7374 27.2307 90.7693 29.2626 90.7693 31.7692Z" fill="#8C8C8C"/>
<path d="M90.7693 59C90.7693 61.5066 88.7374 63.5385 86.2308 63.5385C83.7243 63.5385 81.6924 61.5066 81.6924 59C81.6924 56.4934 83.7243 54.4615 86.2308 54.4615C88.7374 54.4615 90.7693 56.4934 90.7693 59Z" fill="#8C8C8C"/>
<path d="M90.7693 86.2307C90.7693 88.7373 88.7374 90.7692 86.2308 90.7692C83.7243 90.7692 81.6924 88.7373 81.6924 86.2307C81.6924 83.7241 83.7243 81.6923 86.2308 81.6923C88.7374 81.6923 90.7693 83.7241 90.7693 86.2307Z" fill="#8C8C8C"/>
<path d="M90.7693 113.462C90.7693 115.968 88.7374 118 86.2308 118C83.7243 118 81.6924 115.968 81.6924 113.462C81.6924 110.955 83.7243 108.923 86.2308 108.923C88.7374 108.923 90.7693 110.955 90.7693 113.462Z" fill="#8C8C8C"/>
<path d="M118 4.53846C118 7.04499 115.968 9.07692 113.461 9.07692C110.955 9.07692 108.923 7.04499 108.923 4.53846C108.923 2.03194 110.955 0 113.461 0C115.968 0 118 2.03194 118 4.53846Z" fill="#8C8C8C"/>
<path d="M118 31.7692C118 34.2758 115.968 36.3076 113.461 36.3076C110.955 36.3076 108.923 34.2758 108.923 31.7692C108.923 29.2626 110.955 27.2307 113.461 27.2307C115.968 27.2307 118 29.2626 118 31.7692Z" fill="#8C8C8C"/>
<path d="M118 59C118 61.5066 115.968 63.5385 113.461 63.5385C110.955 63.5385 108.923 61.5066 108.923 59C108.923 56.4934 110.955 54.4615 113.461 54.4615C115.968 54.4615 118 56.4934 118 59Z" fill="#8C8C8C"/>
<path d="M118 86.2307C118 88.7373 115.968 90.7692 113.461 90.7692C110.955 90.7692 108.923 88.7373 108.923 86.2307C108.923 83.7241 110.955 81.6923 113.461 81.6923C115.968 81.6923 118 83.7241 118 86.2307Z" fill="#8C8C8C"/>
<path d="M118 113.462C118 115.968 115.968 118 113.461 118C110.955 118 108.923 115.968 108.923 113.462C108.923 110.955 110.955 108.923 113.461 108.923C115.968 108.923 118 110.955 118 113.462Z" fill="#8C8C8C"/>
</g>
<defs>
<clipPath id="clip0_715_765">
<rect width="118" height="118" fill="white"/>
</clipPath>
</defs>
</svg>
