<svg width="130" height="69" viewBox="0 0 130 69" fill="none" xmlns="http://www.w3.org/2000/svg">
<rect width="36" height="38" rx="10" fill="url(#paint0_linear_672_509)"/>
<path d="M45.1846 11.1713L44.0972 18.5658H28.4901V29.0571H42.1143V36.3252H28.4901V47.5117H45.1846V54.9694H18V11.1713H45.1846Z" fill="#0B0C12"/>
<path d="M63.1254 20.3354C65.556 20.3354 67.8374 20.6935 69.9695 21.4098C72.1017 22.1261 73.9779 23.1373 75.5983 24.4434L71.8884 30.0683C69.1167 28.3408 66.3236 27.4771 63.5092 27.4771C62.1873 27.4771 61.1639 27.7088 60.4389 28.1723C59.7567 28.5936 59.4155 29.2046 59.4155 30.0051C59.4155 30.6371 59.5648 31.1638 59.8633 31.5851C60.2044 31.9643 60.8654 32.3646 61.8461 32.7859C62.8269 33.2073 64.3407 33.7129 66.3876 34.3028C69.9269 35.314 72.5494 36.6412 74.2551 38.2844C76.0034 39.8855 76.8776 42.1186 76.8776 44.9837C76.8776 47.2589 76.2167 49.2392 74.8947 50.9246C73.5728 52.5678 71.7605 53.8318 69.4578 54.7166C67.1551 55.6014 64.5966 56.0438 61.7822 56.0438C58.9251 56.0438 56.26 55.6014 53.7867 54.7166C51.3561 53.8318 49.2879 52.6099 47.5822 51.051L52.5074 45.6157C55.3645 47.8067 58.3708 48.9021 61.5263 48.9021C63.0615 48.9021 64.2554 48.6283 65.1083 48.0805C66.0038 47.5328 66.4515 46.7533 66.4515 45.7421C66.4515 44.9416 66.281 44.3096 65.9398 43.8461C65.5987 43.3826 64.9377 42.9613 63.9569 42.5821C62.9762 42.1607 61.4197 41.6551 59.2876 41.0652C55.9188 40.0962 53.4029 38.7479 51.7399 37.0204C50.0768 35.2929 49.2453 33.1441 49.2453 30.5739C49.2453 28.6357 49.7996 26.9083 50.9083 25.3914C52.0597 23.8325 53.6801 22.6106 55.7696 21.7258C57.9017 20.7988 60.3537 20.3354 63.1254 20.3354Z" fill="#0B0C12"/>
<path d="M91.1031 56.0438C88.1607 56.0438 85.858 55.2222 84.195 53.579C82.5746 51.8936 81.7643 49.5131 81.7643 46.4373V8.07441L91.8706 7V46.0581C91.8706 47.4485 92.4463 48.1437 93.5976 48.1437C94.1946 48.1437 94.749 48.0384 95.2607 47.8277L97.2436 54.9062C95.4099 55.6646 93.3631 56.0438 91.1031 56.0438Z" fill="#0B0C12"/>
<path d="M119.19 55.0326C117.826 59.3724 115.587 62.701 112.474 65.0183C109.404 67.3778 105.267 68.7051 100.065 69L98.9776 61.9847C102.218 61.5634 104.606 60.8471 106.142 59.8359C107.719 58.8247 108.977 57.2025 109.915 54.9694H106.461L96.0992 21.4098H106.845L112.922 48.5861L119.574 21.4098H130L119.19 55.0326Z" fill="#0B0C12"/>
<defs>
<linearGradient id="paint0_linear_672_509" x1="0.091176" y1="37.9999" x2="42.5094" y2="9.99942" gradientUnits="userSpaceOnUse">
<stop stop-color="#CCFF33"/>
<stop offset="0.49" stop-color="#9AFF29"/>
<stop offset="1" stop-color="#68FF20"/>
</linearGradient>
</defs>
</svg>
