<svg width="59" height="88" viewBox="0 0 59 88" fill="none" xmlns="http://www.w3.org/2000/svg">
<path d="M32 87.7H26.8C12.2 87.7 0.300049 75.8 0.300049 61.2V26.9C0.300049 12.3 12.2 0.399994 26.8 0.399994H32C46.6 0.399994 58.5 12.3 58.5 26.9V61.2C58.5 75.8 46.6 87.7 32 87.7ZM26.8 5.39999C15 5.39999 5.30005 15 5.30005 26.9V61.2C5.30005 73.1 15 82.7 26.8 82.7H32C43.9 82.7 53.5 73 53.5 61.2V26.9C53.5 15 43.8 5.39999 32 5.39999H26.8Z" fill="url(#paint0_linear_721_795)"/>
<path d="M41.7999 46.7C40.8999 45.7 39.2999 45.7 38.2999 46.7L31.8999 53.7V28.3C31.8999 26.9 30.7999 25.8 29.3999 25.8C27.9999 25.8 26.8999 26.9 26.8999 28.3V53.8L20.4999 46.8C19.5999 45.8 17.9999 45.8 16.9999 46.8C16.1999 47.7 16.1999 49.1 16.9999 50L27.5999 61.7C28.4999 62.7 30.0999 62.7 31.0999 61.7L41.7999 50C42.5999 49 42.5999 47.6 41.7999 46.7Z" fill="url(#paint1_linear_721_795)"/>
<defs>
<linearGradient id="paint0_linear_721_795" x1="0.44745" y1="87.6999" x2="81.4305" y2="50.0816" gradientUnits="userSpaceOnUse">
<stop stop-color="#CCFF33"/>
<stop offset="0.49" stop-color="#9AFF29"/>
<stop offset="1" stop-color="#68FF20"/>
</linearGradient>
<linearGradient id="paint1_linear_721_795" x1="16.4658" y1="62.4499" x2="51.8134" y2="44.9774" gradientUnits="userSpaceOnUse">
<stop stop-color="#CCFF33"/>
<stop offset="0.49" stop-color="#9AFF29"/>
<stop offset="1" stop-color="#68FF20"/>
</linearGradient>
</defs>
</svg>
