<svg width="350" height="327" viewBox="0 0 350 327" fill="none" xmlns="http://www.w3.org/2000/svg">
<path d="M305.72 95.8955H21.061C21.061 97.2961 21.061 98.6044 21.061 99.8972C21.061 145.716 21.061 191.55 21.061 237.369C21.061 253.006 30.315 262.225 45.979 262.225C94.1856 262.225 142.392 262.225 190.599 262.241C192.551 262.241 194.534 262.271 196.44 262.595C201.636 263.503 205.31 268.182 205.049 273.337C204.787 278.678 200.529 282.988 195.164 283.357C194.319 283.419 193.458 283.388 192.597 283.388C143.284 283.388 93.9858 283.403 44.6724 283.388C22.4445 283.388 4.9358 269.013 0.693126 247.25C0.10899 244.279 0.0321301 241.155 0.0321301 238.108C0.00138609 173.804 -0.0139859 109.47 0.0167581 45.1517C0.0321301 22.3885 14.1129 5.02755 36.0334 0.718092C39.2461 0.0870642 42.6126 0.0255005 45.8868 0.0255005C124.33 -0.00528133 202.758 -0.00528133 281.186 0.0101096C308.333 0.0101096 326.933 18.8178 326.933 46.0905C326.933 88.8465 326.933 131.618 326.933 174.374C326.933 175.605 326.995 176.836 326.872 178.052C326.318 183.855 321.737 187.979 316.034 187.856C310.547 187.749 306.119 183.562 305.797 177.852C305.566 173.82 305.72 169.772 305.72 165.724C305.72 143.915 305.72 122.106 305.72 100.297C305.72 98.9583 305.72 97.6347 305.72 95.9109V95.8955ZM21.4761 74.2867H305.72C305.72 68.0534 305.735 62.0663 305.72 56.0946C305.704 51.0772 306.027 46.0136 305.52 41.0423C304.321 29.0374 294.452 21.1111 281.048 21.0957C202.758 21.0803 124.453 21.0957 46.1635 21.0957C44.0883 21.0957 41.9977 21.2342 39.9532 21.5266C30.6839 22.8348 22.2293 30.6226 21.6452 39.9495C20.9381 51.2619 21.4761 62.6665 21.4761 74.2867Z" fill="url(#paint0_linear_764_109)"/>
<path d="M349.96 235.215C349.976 244.542 344.718 252.099 335.587 255.254C322.429 259.825 309.24 264.242 296.004 268.582C293.668 269.352 292.469 270.583 291.7 272.907C287.396 286.036 283.03 299.149 278.511 312.2C274.514 323.789 263.201 329.561 251.841 325.913C245.077 323.743 240.465 319.141 238.39 312.416C227.983 278.509 217.53 244.634 207.492 210.62C202.604 194.09 217.023 179.376 233.517 184.209C267.628 194.213 301.569 204.725 335.541 215.222C344.626 218.023 349.929 225.842 349.96 235.215ZM258.42 305.628C259.219 303.427 259.726 302.073 260.172 300.718C264.215 288.667 268.319 276.647 272.255 264.565C274.791 256.762 279.756 251.621 287.596 249.143C293.883 247.158 300.093 244.957 306.334 242.849C313.559 240.401 320.799 237.954 328.885 235.199C294.713 224.81 261.51 214.714 227.676 204.417C237.975 238.308 248.059 271.522 258.42 305.613V305.628Z" fill="url(#paint1_linear_764_109)"/>
<path d="M90.65 57.1265C85.485 57.1265 81.2731 52.971 81.2116 47.8304C81.1501 42.736 85.3467 38.4728 90.4963 38.4112C95.8611 38.3342 100.135 42.5667 100.073 47.8766C100.012 53.0326 95.8304 57.1419 90.6346 57.1265H90.65Z" fill="url(#paint2_linear_764_109)"/>
<path d="M57.3543 57.1266C52.1893 57.0958 48.0235 52.9402 47.9927 47.7997C47.9773 42.5052 52.2969 38.3035 57.6463 38.4112C62.8113 38.5189 66.9464 42.7822 66.8542 47.9074C66.7466 53.0634 62.5346 57.1573 57.3543 57.1266Z" fill="url(#paint3_linear_764_109)"/>
<path d="M123.854 57.126C118.642 57.0798 114.615 53.0012 114.6 47.7529C114.6 42.3661 118.812 38.2721 124.207 38.4106C129.403 38.5338 133.353 42.6893 133.261 47.9376C133.184 53.1551 129.065 57.1722 123.838 57.126H123.854Z" fill="url(#paint4_linear_764_109)"/>
<defs>
<linearGradient id="paint0_linear_764_109" x1="0.828052" y1="283.395" x2="336.816" y2="13.3069" gradientUnits="userSpaceOnUse">
<stop stop-color="#CCFF33"/>
<stop offset="0.49" stop-color="#9AFF29"/>
<stop offset="1" stop-color="#68FF20"/>
</linearGradient>
<linearGradient id="paint1_linear_764_109" x1="206.889" y1="327" x2="370.449" y2="213.265" gradientUnits="userSpaceOnUse">
<stop stop-color="#CCFF33"/>
<stop offset="0.49" stop-color="#9AFF29"/>
<stop offset="1" stop-color="#68FF20"/>
</linearGradient>
<linearGradient id="paint2_linear_764_109" x1="81.2587" y1="57.1266" x2="102.63" y2="42.1189" gradientUnits="userSpaceOnUse">
<stop stop-color="#CCFF33"/>
<stop offset="0.49" stop-color="#9AFF29"/>
<stop offset="1" stop-color="#68FF20"/>
</linearGradient>
<linearGradient id="paint3_linear_764_109" x1="48.0404" y1="57.1267" x2="69.4129" y2="42.1191" gradientUnits="userSpaceOnUse">
<stop stop-color="#CCFF33"/>
<stop offset="0.49" stop-color="#9AFF29"/>
<stop offset="1" stop-color="#68FF20"/>
</linearGradient>
<linearGradient id="paint4_linear_764_109" x1="114.647" y1="57.1264" x2="135.942" y2="42.3325" gradientUnits="userSpaceOnUse">
<stop stop-color="#CCFF33"/>
<stop offset="0.49" stop-color="#9AFF29"/>
<stop offset="1" stop-color="#68FF20"/>
</linearGradient>
</defs>
</svg>
