<svg width="328" height="327" viewBox="0 0 328 327" fill="none" xmlns="http://www.w3.org/2000/svg">
<path d="M327.502 37.0721V289.961C327.302 290.561 327.03 291.145 326.918 291.753C323.878 308.209 314.328 319.164 298.714 324.881C296.058 325.857 293.211 326.304 290.459 327H37.5456C37.1617 326.832 36.7937 326.576 36.3938 326.504C14.3251 322.53 0.511213 306.082 0.503215 283.66C0.495216 203.546 0.487217 123.432 0.543209 43.3172C0.543209 39.8308 0.807169 36.2645 1.57505 32.8821C6.13436 12.9634 22.6199 0.0574955 43.4487 0.0494993C109.527 0.0175143 175.605 0.0335068 241.683 0.041503C256.472 0.041503 271.262 -0.0784407 286.052 0.0894805C304.073 0.289387 319.431 11.5001 325.246 28.4921C326.206 31.2828 326.758 34.2175 327.502 37.0801V37.0721ZM136.939 209.071C137.786 207.872 138.338 206.792 139.154 205.977C167.03 178.022 194.914 150.075 222.854 122.192C225.013 120.033 227.381 117.906 230.028 116.435C241.851 109.886 254.625 112.765 263.551 123.759C277.637 141.095 291.715 158.447 305.801 175.783C306.417 176.543 307.129 177.222 308.153 178.31C308.217 177.134 308.265 176.623 308.265 176.111C308.265 131.74 308.313 87.3685 308.241 42.9973C308.217 28.7 298.45 19.2645 283.884 19.2645C203.968 19.2485 124.053 19.2485 44.1366 19.2885C41.609 19.2885 38.9934 19.5204 36.5697 20.1681C25.9314 23.0307 19.7243 31.7066 19.7163 43.5811C19.7003 102.953 19.7083 162.325 19.7163 221.697C19.7163 222.489 19.7883 223.289 19.8523 224.552C21.0441 223.609 21.86 222.985 22.6439 222.321C38.0495 209.231 53.4552 196.149 68.8369 183.028C80.6671 172.936 93.1452 172.792 105.175 182.716C115.51 191.248 125.804 199.82 136.931 209.055L136.939 209.071ZM164.11 307.785C204.12 307.785 244.13 307.809 284.148 307.769C298.602 307.753 308.225 298.19 308.265 283.788C308.329 259.744 308.305 235.691 308.225 211.646C308.225 210.303 307.649 208.728 306.817 207.656C302.905 202.61 298.826 197.709 294.795 192.751C279.365 173.76 263.919 154.777 248.53 135.762C246.674 133.467 244.554 131.516 241.539 132.419C239.635 132.995 237.835 134.442 236.379 135.89C205.96 166.259 175.597 196.693 145.209 227.111C139.842 232.484 135.347 232.732 129.548 227.935C117.334 217.827 105.143 207.696 92.9532 197.565C88.2979 193.703 86.0902 193.663 81.5149 197.557C61.574 214.509 41.625 231.445 21.764 248.501C20.6762 249.436 19.8363 251.292 19.8123 252.731C19.6443 263.046 19.6683 273.369 19.7643 283.692C19.7883 286.115 20.0123 288.61 20.6442 290.945C23.5397 301.596 32.1864 307.769 44.0806 307.777C84.0906 307.801 124.1 307.777 164.118 307.777L164.11 307.785Z" fill="url(#paint0_linear_764_122)"/>
<path d="M57.0227 86.6563C57.0627 61.0363 78.0595 40.1501 103.632 40.27C129.092 40.398 149.921 61.3162 149.881 86.7282C149.849 112.356 128.836 133.21 103.232 133.042C77.6036 132.875 56.9747 112.164 57.0147 86.6483L57.0227 86.6563ZM76.3558 86.6483C76.3158 101.529 88.33 113.652 103.24 113.772C118.165 113.899 130.564 101.641 130.612 86.7282C130.66 71.9592 118.013 59.3491 103.32 59.517C88.4419 59.6849 76.3958 71.8072 76.3478 86.6403L76.3558 86.6483Z" fill="url(#paint1_linear_764_122)"/>
<defs>
<linearGradient id="paint0_linear_764_122" x1="1.32575" y1="327" x2="373.719" y2="67.5201" gradientUnits="userSpaceOnUse">
<stop stop-color="#CCFF33"/>
<stop offset="0.49" stop-color="#9AFF29"/>
<stop offset="1" stop-color="#68FF20"/>
</linearGradient>
<linearGradient id="paint1_linear_764_122" x1="57.2498" y1="133.043" x2="162.938" y2="59.3287" gradientUnits="userSpaceOnUse">
<stop stop-color="#CCFF33"/>
<stop offset="0.49" stop-color="#9AFF29"/>
<stop offset="1" stop-color="#68FF20"/>
</linearGradient>
</defs>
</svg>
